HIERARCHY
ROOT Hips
{
	OFFSET 0.00000 0.00000 0.00000
	CHANNELS 6 Xposition Yposition Zposition Zrotation Yrotation Xrotation 
	JOINT LHipJoint
	{
		OFFSET 0 0 0
		CHANNELS 3 Zrotation Yrotation Xrotation
		JOINT LeftHip
		{
			OFFSET 1.92384 -1.64427 0.83032
			CHANNELS 3 Zrotation Yrotation Xrotation
			JOINT LeftKnee
			{
				OFFSET 2.52872 -6.94761 0.00000
				CHANNELS 3 Zrotation Yrotation Xrotation
				JOINT LeftAnkle
				{
					OFFSET 2.51827 -6.91890 0.00000
					CHANNELS 3 Zrotation Yrotation Xrotation
					JOINT LeftToe
					{
						OFFSET 0.22757 -0.62524 2.06528
						CHANNELS 3 Zrotation Yrotation Xrotation
						End Site
						{
							OFFSET 0.00000 -0.00000 1.08218
						}
					}
				}
			}
		}
	}
	JOINT RHipJoint
	{
		OFFSET 0 0 0
		CHANNELS 3 Zrotation Yrotation Xrotation
		JOINT RightHip
		{
			OFFSET -2.09517 -1.64427 0.83032
			CHANNELS 3 Zrotation Yrotation Xrotation
			JOINT RightKnee
			{
				OFFSET -2.55173 -7.01082 0.00000
				CHANNELS 3 Zrotation Yrotation Xrotation
				JOINT RightAnkle
				{
					OFFSET -2.50265 -6.87598 0.00000
					CHANNELS 3 Zrotation Yrotation Xrotation
					JOINT RightToe
					{
						OFFSET -0.22612 -0.62126 1.98677
						CHANNELS 3 Zrotation Yrotation Xrotation
						End Site
						{
							OFFSET -0.00000 -0.00000 1.04433
						}
					}
				}
			}
		}
	}
	JOINT lowerback
	{
		OFFSET 0 0 0
		CHANNELS 3 Zrotation Yrotation Xrotation
		JOINT Chest
		{
			OFFSET 0.02839 1.68926 0.31690
			CHANNELS 3 Zrotation Yrotation Xrotation
			JOINT Chest2
			{
				OFFSET -0.01522 1.70183 0.21192
				CHANNELS 3 Zrotation Yrotation Xrotation
				JOINT lowerneck
				{
					OFFSET 0 0 0
					CHANNELS 3 Zrotation Yrotation Xrotation
					JOINT Neck
					{
						OFFSET -0.04523 1.88988 0.10630
						CHANNELS 3 Zrotation Yrotation Xrotation
						JOINT Head
						{
							OFFSET 0.05172 1.78070 -0.56858
							CHANNELS 3 Zrotation Yrotation Xrotation
							End Site
							{
								OFFSET 0.01532 1.90392 -0.20434
							}
						}
					}
				}
				JOINT LeftCollar
				{
					OFFSET 0 0 0
					CHANNELS 3 Zrotation Yrotation Xrotation
					JOINT LeftShoulder
					{
						OFFSET 3.25522 0.75486 0.22086
CHANNELS 3 Zrotation Xrotation Yrotation
						JOINT LeftElbow
						{
OFFSET 0 -4.856450 0.000000
CHANNELS 3 Zrotation Xrotation Yrotation
							JOINT LeftWrist
							{
OFFSET 0 -2.798740 0.000000
CHANNELS 3 Zrotation Xrotation Yrotation
								JOINT lhand
								{
									OFFSET 0 0 0
CHANNELS 3 Zrotation Xrotation Yrotation
									JOINT LFingers
									{
OFFSET 0 -0.573400 0.000000
CHANNELS 3 Zrotation Xrotation Yrotation
										End Site
										{
OFFSET 0 -0.462290 0.000000
										}
									}
								}
								JOINT LThumb
								{
OFFSET 0 0.000000 0.000000
CHANNELS 3 Zrotation Xrotation Yrotation
									End Site
									{
OFFSET 0 -0.469350 0.469350
									}
								}
							}
						}
					}
				}
				JOINT RightCollar
				{
					OFFSET 0 0 0
					CHANNELS 3 Zrotation Yrotation Xrotation
					JOINT RightShoulder
					{
						OFFSET -3.29079 0.52751 0.36356
CHANNELS 3 Zrotation Xrotation Yrotation
						JOINT RightElbow
						{
OFFSET 0 -4.670180 0.000000
CHANNELS 3 Zrotation Xrotation Yrotation
							JOINT RightWrist
							{
OFFSET 0 -2.655340 0.000000
CHANNELS 3 Zrotation Xrotation Yrotation
								JOINT rhand
								{
									OFFSET 0 0 0
CHANNELS 3 Zrotation Xrotation Yrotation
									JOINT RFingers
									{
OFFSET 0 -0.594070 0.000000
CHANNELS 3 Zrotation Xrotation Yrotation
										End Site
										{
OFFSET 0 -0.478950 0.000000
										}
									}
								}
								JOINT RThumb
								{
OFFSET 0 0.000000 0.000000
CHANNELS 3 Zrotation Xrotation Yrotation
									End Site
									{
OFFSET 0 -0.486270 0.486270
									}
								}
							}
						}
					}
				}
			}
		}
	}
}
MOTION
Frames: 6
Frame Time: 0.008333333333333333
6.300235 17.178321 -34.411427 175.382534 80.166715 -154.378204 0.000000 0.000000 0.000000 -5.701389 -30.459909 -41.478507 3.457097 11.400511 33.643018 0.928863 -4.706381 -17.245775 0.720932 -5.425598 -15.126483 0.000000 0.000000 0.000000 -0.916874 35.937906 -42.984146 -4.446983 -12.732479 38.375184 1.471707 27.134402 -8.632385 -0.230622 -3.087966 8.524031 -3.030485 -0.580105 -16.057591 0.084081 1.111191 -15.812860 1.776977 1.560308 -8.200029 -9.064308 -7.381014 -8.446888 12.777011 -11.179475 22.874528 4.747131 -4.469538 9.872407 0.000000 0.000000 0.000000 6.227174 28.096281 -29.126382 21.435404 -32.333030 6.281226 10.137058 6.365984 -28.503021 0.000000 0.000000 0.000000 -7.125000 0.000000 0.000000 -22.622420 57.395260 7.111691 0.000000 0.000000 0.000000 -8.357526 25.054828 23.252858 -24.781126 -35.979426 -8.160953 -13.989995 4.783660 12.131630 0.000000 0.000000 0.000000 7.125000 0.000000 0.000000 11.864725 42.165436 0.842911
6.216199 17.176845 -34.640705 167.626317 84.841692 -161.593728 0.000000 0.000000 0.000000 -7.811888 -29.447851 -41.428797 3.375666 11.279669 33.229091 0.890232 -1.984085 -17.273031 0.644278 -5.134751 -14.293349 0.000000 0.000000 0.000000 -2.834193 35.238461 -46.077545 -4.798801 -13.153311 39.945420 1.398162 27.067584 -9.202582 -0.017216 -0.252834 0.695920 -3.215784 -0.482659 -15.800219 -0.201171 1.138873 -15.803663 1.575350 1.534148 -8.326752 -7.538217 -6.209959 -9.541002 13.077512 -9.835974 22.977766 4.750148 -3.647982 9.880505 0.000000 0.000000 0.000000 7.500876 27.195175 -29.946039 21.692060 -32.627191 6.419067 9.205261 6.593742 -28.007099 0.000000 0.000000 0.000000 -7.125000 0.000000 0.000000 -23.208880 56.747702 6.940217 0.000000 0.000000 0.000000 -7.903510 24.947575 21.426341 -24.646655 -35.840637 -8.082152 -14.813402 4.590860 13.182165 0.000000 0.000000 0.000000 7.125000 0.000000 0.000000 11.392953 43.305418 0.483049
6.145164 17.193951 -34.842609 93.494655 88.866194 -235.384684 0.000000 0.000000 0.000000 -9.525889 -27.889859 -41.427096 3.356791 11.251437 33.132556 0.865153 0.409208 -17.734601 0.579233 -4.872638 -13.545893 0.000000 0.000000 0.000000 -1.615657 33.305603 -48.791618 -5.234726 -13.643120 41.826687 0.442434 22.237629 -12.168002 -0.947623 6.152342 -17.241935 -3.176255 -0.195952 -15.511214 -0.532930 1.391103 -15.763732 1.215849 1.594472 -8.438275 -5.618505 -5.047400 -10.493681 13.063772 -8.565926 23.363417 4.573120 -2.844720 9.961741 0.000000 0.000000 0.000000 9.243592 26.241078 -30.499737 21.918085 -32.884327 6.541365 9.135199 6.674034 -27.780421 0.000000 0.000000 0.000000 -7.125000 0.000000 0.000000 -23.122246 56.526208 6.786212 0.000000 0.000000 0.000000 -6.964743 24.823155 18.884299 -24.141583 -35.313632 -7.788290 -14.871902 5.704903 13.606104 0.000000 0.000000 0.000000 7.125000 0.000000 0.000000 11.447079 43.738709 0.361224
6.090467 17.174008 -35.014067 12.266703 85.507408 -316.634654 0.000000 0.000000 0.000000 -11.348536 -26.436472 -41.310761 3.391106 11.302703 33.307767 0.853876 2.355456 -18.460669 0.467863 -4.387113 -12.168517 0.000000 0.000000 0.000000 0.819738 30.688454 -50.235969 -5.547733 -13.975191 43.138152 -0.604599 15.577399 -16.549355 -3.041149 10.754329 -31.463283 -3.478096 -0.056733 -15.247255 -0.822509 1.471338 -15.550524 1.085355 1.594106 -8.335423 -3.783600 -3.814005 -11.273620 12.785452 -7.170475 23.896752 4.338772 -2.018034 10.074422 0.000000 0.000000 0.000000 11.345071 25.035365 -31.083080 22.048310 -33.031567 6.612179 9.761538 6.379476 -27.914664 0.000000 0.000000 0.000000 -7.125000 0.000000 0.000000 -22.589360 56.777295 6.757880 0.000000 0.000000 0.000000 -6.601401 25.194140 18.065724 -23.924007 -35.083678 -7.662897 -15.436623 6.614766 14.084238 0.000000 0.000000 0.000000 7.125000 0.000000 0.000000 11.062742 44.283928 0.197989
6.043159 17.156008 -35.161488 7.116345 81.185382 -321.880366 0.000000 0.000000 0.000000 -13.251223 -24.981990 -41.127268 3.396273 11.310465 33.334077 0.816251 4.262658 -19.130898 0.392245 -4.021519 -11.137144 0.000000 0.000000 0.000000 3.566551 27.738281 -51.316765 -5.738881 -14.170491 43.924662 -1.116631 8.307418 -18.931462 -3.881292 12.000662 -35.734417 -3.770306 0.080683 -14.983995 -1.225560 1.560994 -15.409569 0.824648 1.600692 -8.315083 -1.907718 -2.536607 -11.548669 12.279427 -5.668855 24.258244 4.024114 -1.187401 10.045987 0.000000 0.000000 0.000000 13.713345 23.726244 -31.329578 21.978581 -32.952782 6.574204 9.996339 6.012314 -28.013691 0.000000 0.000000 0.000000 -7.125000 0.000000 0.000000 -22.422100 56.916637 6.780962 0.000000 0.000000 0.000000 -6.280035 25.715221 17.467605 -23.637999 -34.779007 -7.499022 -15.175229 5.968258 14.227464 0.000000 0.000000 0.000000 7.125000 0.000000 0.000000 11.330551 44.402102 0.180108
6.005441 17.143453 -35.304463 5.195869 76.839324 -323.842696 0.000000 0.000000 0.000000 -14.778391 -24.075807 -40.895928 3.387008 11.296568 33.286842 0.733705 6.718910 -19.989835 0.306751 -3.560280 -9.842751 0.000000 0.000000 0.000000 5.934620 25.303302 -52.083759 -5.820163 -14.251763 44.255402 -1.111077 0.762950 -19.697126 -3.731855 11.793442 -35.006781 -3.907736 0.163449 -14.916943 -1.479291 1.588692 -15.287163 0.638646 1.573560 -8.207543 -0.247074 -1.135336 -11.577944 11.543691 -3.890747 24.488582 3.688581 -0.293773 9.942651 0.000000 0.000000 0.000000 15.612585 22.360068 -30.347141 21.657899 -32.588236 6.400564 9.360608 5.506259 -27.440288 0.000000 0.000000 0.000000 -7.125000 0.000000 0.000000 -22.667423 56.260178 6.494134 0.000000 0.000000 0.000000 -6.015499 26.326183 17.391862 -23.187764 -34.293471 -7.243843 -18.114792 7.641229 15.270497 0.000000 0.000000 0.000000 7.125000 0.000000 0.000000 8.925605 45.813759 -0.180611
